<?xml version="1.0" encoding="UTF-8"?>
<svg id="Layer_1" xmlns="http://www.w3.org/2000/svg" version="1.1" viewBox="0 0 566.93 185.06">
  <!-- Generator: Adobe Illustrator 30.0.0, SVG Export Plug-In . SVG Version: 2.1.1 Build 123)  -->
  <defs>
    <style>
      .st0 {
        fill: #fff;
      }

      .st0, .st1 {
        fill-rule: evenodd;
      }

      .st1 {
        fill: #293d8a;
      }
    </style>
  </defs>
  <path class="st0" d="M80.91,144.29h448.54c.21,0,.4-.07.57-.2.17-.13.27-.3.32-.51l22.8-99.29c.01-.06.02-.12.02-.18,0,0,0-.02.01-.05.03-.15.05-.28.05-.4,0-.82-.31-1.54-.92-2.14-.02-.02-.04-.03-.05-.05-.62-.51-1.27-.77-1.97-.77H65.5c-8.22,0-15.75,1.48-22.59,4.44-6.3,2.73-11.73,6.68-16.28,11.84-4.3,4.88-7.54,10.41-9.74,16.6-2.14,6.03-3.21,12.32-3.21,18.87s1.07,12.91,3.21,18.94c2.2,6.18,5.44,11.72,9.74,16.6,4.49,5.11,9.92,9.06,16.27,11.84,6.75,2.96,14.28,4.44,22.59,4.44h15.41Z"/>
  <path class="st1" d="M100.09,141.26l23.11-97.37h-57.48c-7.78,0-14.9,1.37-21.35,4.18-5.93,2.55-10.98,6.22-15.18,11.02,0,0-.02,0-.02.03-3.98,4.44-7.04,9.65-9.13,15.59-2.02,5.69-3.05,11.65-3.05,17.81s1.02,12.18,3.05,17.9c2.07,5.86,5.12,11.06,9.15,15.61,4.16,4.72,9.22,8.39,15.18,11.04,6.45,2.77,13.57,4.18,21.35,4.18h34.37Z"/>
  <path class="st1" d="M544.96,43.9H125.48l-22.85,97.37h420.19l22.14-97.37Z"/>
  <path class="st0" d="M25.43,102.9h0s-.05.04-.09.06c.94-.13,2.76-.42,5.45-.83,2.47-.38,3.89-.68,4.22-.91l.94-1.15.02-.02,1.03-1.15s0,0,0-.02c.38-.39.71-.73.98-1.01-1,.17-1.97.38-2.9.64-4,1.13-7.23,2.59-9.66,4.38ZM40.75,100.08c4.67-.72,8.31-1.31,10.91-1.79-1.44-.27-3.55-.57-6.31-.89l-1.66-.21-.3.26c-.8.71-1.69,1.58-2.63,2.63ZM66.54,75.78c-1.6,1.48-4.04,3.67-7.32,6.56-4.18,3.71-7.29,6.52-9.32,8.44-1.67,1.58-2.86,2.78-3.61,3.59,3.63.45,6.98,1.19,10.02,2.23.82.27,1.29.42,1.4.45h.03s.11,0,.19,0c.23,0,.56-.02,1.01-.07l2.72-.28,2.57-4.55c.56-.99,2.13-3.9,4.7-8.75h0l3.76-7.1h0c2.35-4.4,4-7.92,4.98-10.55-.61.52-1.63,1.42-3.06,2.68-1.86,1.66-3.4,3.04-4.6,4.15l-3.49,3.2ZM75.47,133.2c.14-.03.35-.15.62-.34.39-.31.8-.72,1.22-1.25.62-.8,1.16-1.73,1.59-2.82.45-1.09.74-2.2.88-3.31.08-.56.11-1.07.11-1.49,0-.63-.11-1.33-.31-2.09l-.03-.08-.08.17c-1.28,2.55-2.29,4.93-3.05,7.15-.66,1.93-.99,3.2-.99,3.83,0,.11,0,.18.02.23ZM80.72,53.6h.02c.14.03.29.04.44.04.79,0,1.68-.39,2.69-1.15,2.03-1.55,3.04-2.88,3.04-3.99,0-.1,0-.18-.02-.27-.09-.4-.42-.6-1.02-.6-.18,0-.39.02-.58.06-1.1.25-2.34,1.1-3.71,2.56-.91.97-1.37,1.86-1.37,2.69,0,.38.17.6.51.67ZM85.16,45.66c-1.74.23-3.33.94-4.73,2.1-1.6,1.33-2.49,2.88-2.64,4.67,0,.12-.02.24-.02.35,0,2.12,1.15,3.17,3.47,3.17.11,0,.2,0,.3,0,3.99-.21,6.46-2.16,7.4-5.84.1-.34.14-.68.14-1.03,0-2.3-1.13-3.45-3.38-3.45-.17,0-.36,0-.53.04ZM90.29,90.79l3.78-.99c4.58-10,9.8-21.17,15.69-33.52l2.15-4.52c.6-1.39.9-2.57.9-3.55,0-.36-.09-.53-.24-.53-.45,0-1.48,1.42-3.07,4.25l-2.75,5.1c-3.76,6.97-9.09,17.9-16.01,32.78-.19.43-.34.75-.45.97ZM42.69,136.45c.5.24,1.01.47,1.52.71.83.35,1.69.69,2.54,1.01l2.28-5.4c.03-.07.1-.22.18-.41,3.55-8.13,7.02-15.63,10.4-22.49l3.61-7.33,3.44,2.27c2.26,1.49,4.36,3.22,6.29,5.19,1.95,1.99,3.33,3.82,4.11,5.46l.6,1.22-1.09,2.01c-1.56,2.91-2.74,5.36-3.53,7.37-.92,2.31-1.37,4.39-1.37,6.21,0,1.43.3,2.5.9,3.21.71.82,1.65,1.24,2.87,1.24.18,0,.35,0,.53-.04.75-.1,1.54-.49,2.35-1.18.72-.62,1.42-1.43,2.08-2.42.65-.97,1.19-2.01,1.64-3.13.47-1.17.77-2.28.92-3.37.06-.52.1-1.07.1-1.65,0-1.84-.33-3.73-1-5.7l-.44-1.3.89-2.1c2.46-5.81,5.45-12.61,8.97-20.39l-3.81.91c-2.19,4.69-4.12,8.77-5.78,12.2l-2.49,5.11-.91-1.38c-1.41-2.14-3.1-4.15-5.06-6.04-1.65-1.57-3.68-3.21-6.08-4.93l-1.66-1.17,3.84-.65h0c8.34-1.51,16.39-3.4,24.14-5.68,2.07-.6,3.63-1.27,4.69-1.99,1.38-.94,2.07-1.71,2.07-2.3,0-.22-.17-.32-.53-.32-.46,0-1.22.18-2.26.53-.56.18-1.73.51-3.52.95h0l-1.84.47h0c-9.97,2.57-18.26,4.22-24.85,4.93l-1.01.1c.89-1.9,3.55-7,7.99-15.29,4.12-7.67,6.76-13.66,7.92-17.96.22-.83.33-1.62.33-2.35,0-.67-.09-1.3-.29-1.87-.31-.92-.81-1.38-1.48-1.38-.45,0-.83.22-1.16.64-.29.38-.43.8-.44,1.26v.19l-.52.45c-10.96,9.85-18.16,16.24-21.6,19.16-5.1,4.35-9.47,8.46-13.11,12.32-1.61,1.73-2.59,2.7-2.92,2.92l-1.4.11h-.02c-2.21.19-4.55.67-6.98,1.4-2.24.67-4.37,1.51-6.37,2.5-1.94.95-3.52,1.93-4.71,2.92-1.32,1.11-1.99,2.11-2.03,3v.08c0,.84.43,1.47,1.3,1.88.64.31,1.49.46,2.54.46.51,0,1.03-.04,1.58-.12,2.11-.28,4.22-.6,6.35-.95l-.15.22h0c-.41.66-.62,1.27-.62,1.86,0,.45.12.83.38,1.14.28.33.63.49,1.06.49.59,0,1.13-.31,1.63-.9,1.9-2.3,3.03-3.62,3.4-3.96l16.9-2.91h0c2.96-.53,4.93-.84,5.91-.93,0,0,0,0,0,.02h0s0,0,0,0h0l-.02.03h0c-1.81,3.37-4.28,8.22-7.39,14.57-3.74,7.62-6.4,13.24-7.96,16.85l-1.85,4.41Z"/>
  <path class="st0" d="M152.5,58.66h.06c.39.01.62.09.68.26,0,.03.03.06.05.09.06.08.1.21.1.37v.02c0,.17-.04.4-.13.68,0,0,0,0,0,.01,0,.01,0,.02,0,.03-.09.41-.23.74-.42,1.01-.02.03-.04.05-.06.06-.3.25-.63.38-.97.38h-6.83c-.39-.01-.63-.13-.73-.36-.02-.1-.03-.22-.03-.35v-.05c0-.18.02-.41.07-.68,0,0,0-.02,0-.03,0-.01,0-.02,0-.03.14-.45.3-.78.47-1.01.01-.02.04-.05.07-.07.28-.22.57-.33.88-.33h6.78ZM140.43,57.95l-1.16,4.43c-.15.6-.23,1.12-.24,1.57v.06c0,.59.12,1.06.38,1.44,0,0,0,.01,0,.02.41.53,1.33.82,2.74.85h9.72c1.54,0,2.67-.29,3.38-.86,0,0,0,0,.01,0,0,0,.01,0,.01,0,.71-.68,1.23-1.7,1.56-3.07l1.17-4.43c.14-.6.21-1.1.21-1.51v-.07c0-.63-.13-1.12-.4-1.47,0,0-.01-.02-.03-.05-.29-.52-1.17-.8-2.65-.82-.06,0-.16-.01-.28-.01h-9.47c-1.48,0-2.62.28-3.43.86,0,0,0,0-.01,0,0,0,0,0,0,.01-.64.5-1.14,1.52-1.52,3.06ZM159.93,78.46l-7.46,30.23c-.54,2.23-.82,4.07-.84,5.51v.18c0,1.27.21,2.22.62,2.84,0,0,0,.01,0,.02.93,1.22,2.98,1.85,6.15,1.91h.54c2.26,0,4.05-.25,5.39-.76,1.25-.51,2.51-1.36,3.78-2.56.06-.06.13-.09.22-.09.16,0,.27.09.33.26l.82,2.55c.06.18.17.26.32.26h4.17c.17,0,.28-.1.33-.3l6.2-25.1s.01-.08.01-.11c0-.27-.12-.41-.35-.41h-11.85c-.17,0-.28.1-.33.29l-1.8,7.32s-.01.07-.01.11c0,.27.11.4.35.4h1.04c.23,0,.35.13.35.4,0,.04,0,.07-.01.11l-1.69,6.84s0,0,0,.01l-.25.88s0,.03,0,.04c-.09.45-.31.83-.68,1.13-.32.29-.75.43-1.27.43h-.05c-.56-.01-.88-.19-.96-.55,0,0,0,0,0-.02-.04-.12-.06-.29-.06-.49h0v-.04c0-.35.08-.82.23-1.39l7.31-29.58c.24-1.07.53-1.76.84-2.09h0c.28-.32.67-.48,1.18-.48.03,0,.05,0,.06,0,.58.01.97.18,1.18.51.05.1.07.22.07.38h0v.02c-.01.26-.09.73-.23,1.4-.03.12-.05.2-.05.25l-1.53,6.21s-.01.07-.01.11c0,.27.12.4.35.4h9.9c.17,0,.28-.1.33-.3l1.67-6.76c.56-2.29.85-4.16.88-5.61v-.17c0-1.32-.24-2.25-.71-2.81-.91-1.12-3.73-1.73-8.44-1.83-.29,0-.75-.01-1.36-.01-5.25,0-8.73.57-10.44,1.7,0,0-.01.01-.02.01-1.6,1.15-3,4.06-4.19,8.72ZM179.19,118.73h16.13c.18,0,.29-.09.32-.28l1.8-7.37s.02-.08.02-.12c0-.26-.11-.39-.34-.39h-5.41c-.23,0-.34-.13-.34-.4,0-.04,0-.08.02-.12l3.69-14.62c.05-.19.16-.28.33-.28h5.8c.18,0,.29-.1.33-.3l1.8-7.46s.02-.08.02-.12c0-.26-.11-.39-.34-.39h-5.41c-.23,0-.35-.13-.35-.4,0-.04,0-.07.01-.11l2.44-9.68c.05-.19.16-.29.33-.29h5.79c.17,0,.28-.1.33-.3l1.8-7.35s.01-.07.01-.11c0-.27-.12-.4-.35-.4h-16.13c-.18,0-.29.1-.32.28l-12.33,49.69s-.01.07-.01.11c0,.27.11.4.35.4ZM228.19,58.66l-14.12,59.56s-.01.07-.01.11c0,.27.12.4.35.4h9.81c.17,0,.28-.09.33-.28l5.75-23.03c.05-.19.16-.29.33-.29h2.42c.23,0,.35.13.35.4,0,.04,0,.07-.01.11l-5.64,22.58s-.02.08-.02.12c0,.26.12.39.35.39h9.93c.17,0,.28-.1.33-.29l14.12-59.56s.01-.07.01-.11c0-.27-.11-.4-.35-.4h-9.91c-.17,0-.28.1-.33.3l-6.31,27.92c-.04.2-.15.3-.33.3h-2.42c-.23,0-.35-.13-.35-.39,0-.04,0-.07.01-.11l6.21-27.52s.01-.07.01-.11c0-.26-.12-.39-.35-.39h-9.84c-.17,0-.28.1-.33.3ZM257.28,100.26l4.84-14.73c.06-.17.16-.26.32-.26.23,0,.35.13.35.39,0,.03,0,.06,0,.09l-2.4,14.73c-.03.22-.14.33-.34.33h-2.43c-.23,0-.34-.13-.34-.39,0-.05,0-.1.02-.15ZM241.9,118.73h9.08c.16,0,.27-.09.32-.26l3.1-9.4c.06-.17.17-.26.33-.26h3.59c.23,0,.34.13.34.39,0,.03,0,.05,0,.08l-1.46,8.97s0,.05,0,.08c0,.27.12.4.35.4h9.25c.2,0,.31-.11.34-.35l5.98-49.69s0-.03,0-.05c0-.27-.11-.4-.34-.4h-12.23c-.15,0-.26.08-.32.24l-18.63,49.69c-.02.05-.03.1-.03.16,0,.27.11.4.34.4ZM274.02,118.73h11.04c.15,0,.26-.08.32-.23l18.84-49.69c.02-.05.03-.1.03-.16,0-.28-.11-.41-.34-.41h-9.16c-.15,0-.26.09-.33.27l-9.18,28.51c-.06.18-.16.26-.32.26-.23,0-.35-.13-.35-.39,0-.03,0-.06,0-.09l4.96-28.08s0-.06,0-.08c0-.27-.12-.41-.35-.41h-9.29c-.2,0-.32.11-.35.35l-5.88,49.69s0,.04,0,.06c0,.26.12.39.35.39ZM294.6,118.73h16.13c.17,0,.28-.1.33-.29l1.8-7.37s.01-.07.01-.11c0-.27-.12-.4-.35-.4h-5.4c-.23,0-.35-.13-.35-.4,0-.04,0-.07.01-.11l3.69-14.63c.05-.19.16-.29.33-.29h5.81c.17,0,.28-.1.33-.3l1.8-7.45s.01-.07.01-.11c0-.27-.11-.4-.35-.4h-5.42c-.23,0-.34-.13-.34-.4,0-.04,0-.08.02-.12l2.42-9.67c.05-.19.16-.29.33-.29h5.81c.17,0,.28-.1.33-.3l1.8-7.36s.01-.07.01-.11c0-.27-.11-.4-.35-.4h-16.13c-.17,0-.28.1-.33.3l-12.32,49.68s-.02.08-.02.12c0,.26.11.4.34.4ZM337.12,86.12l-.34,1.38c-.18.77-.46,1.3-.84,1.57,0,0-.01,0-.02.01-.36.28-.94.42-1.73.42h-.06c-.15,0-.27-.01-.36-.04h0s-.05-.01-.09-.01c-.21-.03-.31-.17-.31-.41,0-.04,0-.07.01-.11l3.08-12.14c.05-.19.16-.28.33-.28h.82c.77.01,1.24.14,1.4.4,0,.01.01.03.03.04.09.11.13.29.13.54h0v.03c0,.38-.1.96-.32,1.72l-1.74,6.89ZM315.92,118.73h9.89c.17,0,.28-.09.33-.28l4.83-19.42c.05-.2.16-.3.33-.3h.51c.83.02,1.37.2,1.6.54,0,0,0,0,0,.01,0,0,0,0,0,.01.15.21.23.49.23.85h0v.04c0,.34-.07.76-.19,1.25l-4.2,16.79s-.01.07-.01.11c0,.27.12.4.35.4h9.94c.17,0,.28-.09.33-.28l4.05-16.12c.32-1.38.49-2.57.51-3.56v-.13c0-.77-.1-1.41-.3-1.92-.37-.96-1.09-1.7-2.16-2.22-.14-.07-.21-.19-.21-.38,0-.19.08-.32.23-.38,1.51-.61,2.69-1.43,3.53-2.46,0,0,0,0,0-.01,1.03-1.36,2-3.81,2.89-7.35l1.28-5.22c.52-2.18.8-3.98.82-5.41v-.17c0-1.44-.27-2.47-.82-3.09,0,0-.01,0-.02-.01-1.1-1.09-3.88-1.68-8.34-1.77-.27,0-.68-.01-1.25-.01h-11.85c-.18,0-.29.1-.32.28l-12.32,49.69s-.01.07-.01.11c0,.27.12.4.35.4ZM348.39,98.84l-2.43,9.93c-.55,2.21-.83,4.04-.86,5.49v.17h0c0,1.32.24,2.29.72,2.88l.02.02c1.01,1.12,3.82,1.72,8.44,1.81.28,0,.72.01,1.31.01h0c3.74,0,6.36-.16,7.85-.47,1.31-.33,2.45-.93,3.42-1.82,0,0,0,0,0,0,0,0,0,0,0-.01.69-.73,1.18-1.47,1.48-2.21,0,0,0-.01,0-.02.49-1.05.88-2.31,1.18-3.78v-.02l2.89-11.49c.34-1.26.51-2.38.52-3.33v-.13c0-.71-.09-1.34-.26-1.88-.41-1.31-1.43-2.44-3.05-3.37l-5.64-3.55h0c-.68-.49-1.11-.93-1.29-1.34-.02-.03-.03-.06-.03-.08-.05-.17-.07-.39-.07-.66h0v-.06c0-.39.07-.86.21-1.42l1.15-4.79c.2-.86.5-1.5.91-1.91.01-.01.02-.02.02-.03.29-.37.7-.55,1.23-.55h0s.02,0,.04,0c.02,0,.03,0,.04,0,.59.01.96.16,1.1.46.05.11.08.25.08.43v.03c0,.31-.1.83-.29,1.56l-1.66,6.71s-.01.08-.01.11c0,.27.11.4.35.4h9.72c.17,0,.27-.1.32-.3l1.84-7.22.81-3.08c.2-.87.31-1.65.32-2.34v-.11c0-1.44-.4-2.52-1.21-3.23-1.18-.99-3.9-1.53-8.18-1.62-.28,0-.7-.01-1.28-.01-5.33,0-8.82.6-10.48,1.8-1.68,1.2-3.06,4.07-4.16,8.59l-1.45,5.9c-.38,1.41-.57,2.61-.58,3.61v.12h0c0,.71.08,1.32.24,1.86.42,1.42,1.32,2.58,2.68,3.47l6.14,3.98c.69.47,1.13.9,1.33,1.3.02.04.03.07.04.11.04.2.05.43.05.67v.08c0,.45-.07.91-.19,1.38l-1.91,7.56-.21.93s0,.02,0,.03c-.13.42-.38.77-.75,1.05-.42.32-.83.48-1.24.48h-.06c-.6-.01-.95-.2-1.04-.57-.01-.03-.02-.05-.02-.06-.06-.16-.1-.35-.1-.57v-.04c0-.34.07-.76.19-1.24l2.33-9.41s.01-.08.01-.11c0-.27-.12-.41-.35-.41h-9.9c-.18,0-.28.1-.32.3ZM376.62,118.73h9.84c.17,0,.28-.09.33-.28l10.34-41.58c.05-.2.16-.3.33-.3h4.91c.17,0,.29-.1.33-.28l1.84-7.53s.01-.07.01-.11c0-.27-.12-.4-.35-.4h-20.7c-.17,0-.28.1-.33.28l-1.84,7.53s-.01.07-.01.11c0,.27.12.4.35.4h4.51c.23,0,.34.13.34.4,0,.04,0,.08-.02.12l-10.22,41.13s-.01.07-.01.11c0,.27.12.4.35.4ZM408.12,100.25l4.84-14.73c.06-.17.16-.26.31-.26.23,0,.35.13.35.39,0,.03,0,.06,0,.09l-2.41,14.74c-.03.22-.15.33-.34.33h-2.43c-.23,0-.35-.14-.35-.41,0-.05,0-.09.02-.14ZM392.74,118.73h9.07c.16,0,.27-.08.33-.25l3.11-9.41c.05-.17.15-.26.32-.26h3.6c.23,0,.34.13.34.4,0,.03,0,.05,0,.08l-1.46,8.97s0,.05,0,.08c0,.26.11.39.34.39h9.26c.2,0,.31-.11.34-.35l5.98-49.69s0-.03,0-.05c0-.27-.11-.4-.34-.4h-12.24c-.15,0-.26.08-.32.23l-18.62,49.69c-.02.05-.03.1-.03.16,0,.27.11.4.34.4ZM442.52,76.44h.82c.77.01,1.24.16,1.42.45,0,0,0,0,0,.02,0,0,0,.01,0,.02.09.12.14.31.14.58h0v.04c0,.39-.11,1.01-.32,1.84l-7.06,28.27-.33,1.31s0,.02,0,.03c-.11.64-.37,1.1-.76,1.4-.37.29-.93.43-1.69.43h-.09c-.12,0-.27-.01-.43-.04-.01,0-.04,0-.07,0-.03,0-.05,0-.07-.01-.2-.03-.31-.16-.31-.4,0-.04,0-.08.02-.11l8.37-33.52c.05-.19.16-.28.33-.28ZM445.64,68.23h-11.84c-.17,0-.28.1-.33.3l-12.32,49.69s-.02.08-.02.12c0,.26.11.39.34.39h11.69c5.37,0,8.9-.58,10.57-1.75,1.64-1.17,3.04-4.06,4.19-8.68l7.3-29.67c.55-2.2.83-4.02.86-5.48v-.17h0c0-1.34-.24-2.3-.72-2.88l-.02-.02c-1-1.11-3.8-1.71-8.4-1.8-.56-.01-1-.02-1.31-.02h0ZM137.83,100.26l4.84-14.73c.06-.17.16-.26.31-.26.23,0,.35.13.35.39,0,.03,0,.06,0,.09l-2.4,14.73c-.03.22-.14.33-.34.33h-2.43c-.23,0-.34-.13-.34-.39,0-.05,0-.1.02-.15ZM122.38,118.73h9.08c.16,0,.27-.09.32-.26l3.1-9.4c.06-.17.17-.26.32-.26h3.59c.23,0,.34.13.34.39,0,.03,0,.05,0,.08l-1.46,8.97s0,.05,0,.08c0,.27.12.4.35.4h9.25c.2,0,.31-.11.34-.35l5.98-49.69s0-.03,0-.05c0-.27-.11-.4-.35-.4h-12.23c-.15,0-.26.08-.32.24l-18.63,49.69c-.02.05-.03.1-.03.16,0,.27.11.4.34.4Z"/>
  <path class="st0" d="M477.11,99.63l4.84-14.44c.06-.17.16-.26.32-.26.23,0,.35.13.35.38,0,.03,0,.06,0,.08l-2.41,14.44c-.03.21-.14.32-.34.32h-2.43c-.23,0-.34-.13-.34-.39,0-.05,0-.1.02-.14ZM461.73,117.73h9.08c.16,0,.27-.09.32-.26l3.1-9.21c.06-.17.17-.25.33-.25h3.59c.23,0,.34.13.34.38,0,.03,0,.05,0,.08l-1.46,8.79s0,.05,0,.08c0,.26.12.39.35.39h9.25c.2,0,.31-.11.34-.34l5.98-48.71s0-.03,0-.05c0-.26-.12-.4-.35-.4h-12.23c-.15,0-.26.08-.32.24l-18.63,48.71s-.03.1-.03.15c0,.26.11.39.34.39ZM494.71,98.24l-2.43,9.73c-.55,2.16-.83,3.96-.86,5.39v.17h0c0,1.3.24,2.24.72,2.83l.02.02c1.01,1.1,3.82,1.69,8.44,1.78.28,0,.72,0,1.31,0h0c3.74,0,6.36-.15,7.86-.46,1.31-.32,2.45-.91,3.42-1.79,0,0,0,0,0,0,0,0,0,0,0-.01.69-.72,1.19-1.44,1.48-2.17,0,0,0-.01,0-.02.49-1.03.88-2.26,1.18-3.71v-.02l2.89-11.27c.34-1.24.51-2.33.52-3.27v-.13c0-.7-.09-1.31-.26-1.84-.41-1.29-1.43-2.39-3.05-3.31l-5.64-3.48h0c-.68-.48-1.11-.91-1.29-1.31-.02-.03-.03-.06-.03-.08-.05-.17-.07-.39-.07-.65h0v-.06c0-.38.07-.85.21-1.39l1.15-4.7c.2-.85.5-1.47.91-1.87.01-.01.02-.02.02-.03.29-.36.7-.54,1.23-.54h0s.02,0,.04,0c.02,0,.03,0,.04,0,.59,0,.96.16,1.1.45.05.11.08.25.08.42v.03c0,.3-.1.81-.29,1.53l-1.66,6.57s-.01.08-.01.11c0,.26.11.4.35.4h9.72c.17,0,.27-.1.32-.29l1.84-7.08.81-3.02c.2-.85.31-1.61.32-2.3v-.11c0-1.41-.4-2.47-1.21-3.17-1.18-.97-3.9-1.5-8.18-1.59-.27,0-.7,0-1.28,0-5.33,0-8.82.59-10.48,1.77-1.68,1.18-3.06,3.99-4.16,8.42l-1.45,5.78c-.38,1.38-.57,2.56-.58,3.54v.12h0c0,.69.08,1.3.25,1.83.42,1.39,1.32,2.53,2.68,3.4l6.14,3.91c.69.46,1.13.88,1.33,1.28.02.04.04.07.04.11.04.2.05.42.05.66v.08c0,.44-.07.89-.19,1.35l-1.91,7.41-.21.91s0,.02,0,.03c-.13.41-.38.75-.75,1.03-.42.31-.83.47-1.24.47h-.06c-.6,0-.95-.2-1.04-.56-.01-.03-.02-.05-.02-.06-.06-.16-.1-.34-.1-.56v-.04c0-.34.07-.74.19-1.22l2.33-9.22s.01-.08.01-.11c0-.26-.12-.4-.35-.4h-9.9c-.18,0-.28.1-.32.29Z"/>
</svg>